<svg width="96" height="72" fill="none" xmlns="http://www.w3.org/2000/svg"><path d="M78.725 31.1c-4.775-3.884-9.645-6.983-14.476-9.212-6.113-2.82-12.184-4.251-18.043-4.251-5.862 0-11.934 1.43-18.047 4.25-4.831 2.23-9.701 5.329-14.475 9.212C5.592 37.681.616 44.181.408 44.454A2 2 0 00.45 46.93c.208.255 5.191 6.319 13.288 12.456 10.816 8.198 22.044 12.532 32.468 12.532 10.42 0 21.647-4.334 32.465-12.532 8.097-6.137 13.082-12.2 13.29-12.456a2 2 0 00.043-2.475c-.208-.273-5.187-6.773-13.28-13.355zm-32.52 36.816c-12.026 0-22.939-6.341-29.975-11.662-5.647-4.27-9.78-8.589-11.62-10.634 4.275-5.101 21.463-23.983 41.596-23.983 11.992 0 22.892 6.802 29.923 12.508 5.695 4.62 9.852 9.297 11.671 11.472-4.347 4.822-21.498 22.3-41.594 22.3z" fill="#fff"/><path d="M46.15 23.56c-11.66 0-21.144 9.484-21.144 21.14 0 11.657 9.485 21.14 21.143 21.14 11.657 0 21.14-9.483 21.14-21.14 0-11.656-9.483-21.14-21.14-21.14zm0 38.28c-9.453 0-17.144-7.689-17.144-17.14 0-9.45 7.69-17.14 17.143-17.14 9.45 0 17.14 7.69 17.14 17.14 0 9.451-7.69 17.14-17.14 17.14z" fill="#fff"/><path d="M45.236 38.142a5.955 5.955 0 00-5.947 5.95 5.955 5.955 0 005.947 5.95c3.28 0 5.95-2.669 5.95-5.95 0-3.28-2.67-5.95-5.95-5.95zm0 7.9a1.95 1.95 0 010-3.9c1.075 0 1.95.875 1.95 1.95 0 1.076-.875 1.95-1.95 1.95zM94 12.513h-.02l-10.154.099-.102-10.152a2 2 0 00-2-1.98h-.02a2 2 0 00-1.98 2.02l.103 10.151-10.153.099a2 2 0 00.02 4h.02l10.154-.1.102 10.153a2 2 0 002 1.98h.02a2 2 0 001.98-2.02l-.103-10.151 10.153-.1a2 2 0 00-.02-3.999z" fill="#fff"/></svg>