<svg width="96" height="82" fill="none" xmlns="http://www.w3.org/2000/svg"><path d="M70.425 64.406c.948 0 1.543.546 1.814.872l3.061-2.542a6.33 6.33 0 00-4.875-2.31 6.363 6.363 0 00-6.356 6.356 6.363 6.363 0 006.356 6.356 6.33 6.33 0 004.876-2.31l-3.062-2.542c-.27.326-.866.873-1.814.873a2.38 2.38 0 01-2.377-2.377 2.38 2.38 0 012.377-2.376zM37.25 53.61a1.129 1.129 0 01-.397-.12c.05-.092.17-.249.414-.43 1.018-.75 2.611.527 2.627.54l1.268-1.533 1.28-1.523a7.82 7.82 0 00-2.435-1.36v-.74h-3.98v.776a5.342 5.342 0 00-1.123.64c-1.62 1.194-2.364 2.966-1.944 4.623.413 1.627 1.845 2.802 3.738 3.067 1.679.236 2.647.482 2.879.733a.913.913 0 01-.003.275c-.02.167-.073.358-.439.507-.766.311-2.226.134-3.624-.99l-2.492 3.102a9.314 9.314 0 003.009 1.626v.944h3.98v-.788c.213-.058.423-.125.626-.208 1.63-.662 2.683-2.015 2.89-3.71.546-4.475-4.06-5.12-6.274-5.431z" fill="#fff"/><path d="M37.92 41.937c-7.807 0-14.158 6.352-14.158 14.158 0 7.807 6.35 14.158 14.158 14.158 7.807 0 14.158-6.351 14.158-14.158 0-7.806-6.352-14.158-14.158-14.158zm0 24.337c-5.613 0-10.179-4.566-10.179-10.179 0-5.612 4.566-10.178 10.179-10.178 5.612 0 10.178 4.566 10.178 10.178 0 5.613-4.566 10.179-10.178 10.179z" fill="#fff"/><path d="M96 28.503L25.52.5l-13.6 34.227H0v42.737h60.916a14.25 14.25 0 009.509 3.628c7.89 0 14.31-6.42 14.31-14.31 0-2.248-.524-4.377-1.452-6.272L96 28.503zM27.75 5.668l63.083 25.064-10.302 25.93a14.355 14.355 0 00-4.692-3.122V34.727h-8.816c.148-5.836-3.367-11.316-8.925-13.525a14.067 14.067 0 00-10.835.158 14.064 14.064 0 00-7.55 7.773 14.13 14.13 0 00-.997 5.595H16.203L27.75 5.668zm29.12 29.059c-.805-1.206-2.162-2.046-3.705-2.924a1.138 1.138 0 01-.325-.259c.08-.066.25-.168.543-.245 1.225-.323 2.232 1.453 2.242 1.47l1.744-.955 1.752-.944a8.286 8.286 0 00-1.619-2.026c-.048-.044-.097-.084-.146-.126l.277-.699-3.698-1.47-.289.73a5.19 5.19 0 00-1.277.172c-1.946.513-3.292 1.884-3.514 3.579-.18 1.384.411 2.736 1.57 3.697H42.7c-.05-1.401.186-2.803.712-4.126a10.112 10.112 0 015.428-5.588 10.112 10.112 0 017.789-.113c4.03 1.601 6.568 5.593 6.416 9.827H56.87zm-52.892 3.98h67.88v13.838a14.15 14.15 0 00-1.434-.073c-7.89 0-14.31 6.42-14.31 14.31 0 2.42.606 4.701 1.672 6.702H3.979V38.706zm66.446 38.406c-5.697 0-10.33-4.635-10.33-10.33 0-5.697 4.634-10.331 10.33-10.331s10.33 4.634 10.33 10.33c0 5.697-4.634 10.33-10.33 10.33z" fill="#fff"/></svg>