<svg width="96" height="96" fill="none" xmlns="http://www.w3.org/2000/svg"><path d="M88.125 60h-24.75a.75.75 0 00-.75.75v10.5c0 .414.335.75.75.75h24.75a.75.75 0 00.75-.75v-10.5a.75.75 0 00-.75-.75zm-18.487 8.957a3 3 0 110-6.002 3 3 0 010 6.002zm6.487 7.543v8.243c0 2.067-1.283 3.757-3.35 3.757h-61.48l-.206-.005c-1.36-.002-2.464-1.798-3.964-2.386v1.68c0 3.722 3.412 8.211 7.134 8.211h64.478c3.723 0 6.389-3.036 6.389-6.758V76.5h-9.001z" fill="#fff"/><path d="M63.638 55.5h8.218l.032-9H17.946c-6.655 0-6.851-.035-6.857-.035-1.36-.002-2.464-.374-3.964-.962v32.915c0 .122.23.249.23.375 0 2.068 1.874 5.207 3.94 5.207h60.331v-7.5h-7.987c-2.895 0-5.513-2.422-5.513-5.317V60.73c0-2.894 2.617-5.23 5.513-5.23zm1.477-35.062L48.589.274a.749.749 0 00-.58-.275.763.763 0 00-.58.286L30.904 20.459a.789.789 0 00-.097.818c.124.262.387.473.677.473h5.641v17.156c0 .415.777.844 1.191.844h19.48c.415 0 .329-.429.329-.844V21.75h6.41c.29 0 .554-.212.678-.473a.828.828 0 00-.098-.84z" fill="#fff"/><path d="M65.115 20.493l-.208-.243H31.112l-.208.221a.798.798 0 00-.098.823c.124.262.388.456.678.456h5.641v3h21v-3h6.41c.29 0 .554-.21.678-.473a.73.73 0 00-.098-.784zm-6.99 18.413V33h-21v5.906c0 .415.777.844 1.191.844h19.481c.414 0 .328-.429.328-.844zm21-5.652v-4.82c0-4.55-3.338-8.184-7.888-8.184h-1.513c.14.75 0 2.034-.445 2.975-.275.583-.662.775-1.114 1.525h3.072c2.068 0 3.388 1.616 3.388 3.683V33h-12v5.906c0 1.128.062 2.344-.547 3.094h10.697c2.067 0 3.35 1.616 3.35 3.684V55.5h9V41.183c0-3.768-2.25-6.948-6-7.93zm-46.5 5.652V33H15.761c-2.067 0-4.136-1.749-4.136-3.817v-.75c0-2.067 2.069-3.683 4.136-3.683h12.094c-.453-.75-.84-.942-1.115-1.525-.446-.941-.585-2.225-.445-2.975H15.76c-4.548 0-8.635 3.634-8.635 8.183v9.401c0 .114.228.264.228.382 0 2.069 1.876 3.784 3.943 3.784h22.74c-.608-.75-1.411-1.966-1.411-3.094z" fill="#fff"/></svg>