<svg width="64" height="54" fill="none" xmlns="http://www.w3.org/2000/svg"><path d="M9.43 36.903c-5.374 0-9.43 1.986-9.43 4.625v7.305c0 2.64 4.056 4.625 9.43 4.625 5.376 0 9.431-1.986 9.431-4.625v-7.305c0-2.625-4.055-4.625-9.43-4.625zm-7.486 6.93c1.584 1.125 4.32 1.848 7.487 1.848 3.166 0 5.902-.723 7.486-1.848v2.39c-1.07 1.138-3.848 2.138-7.486 2.138-3.64 0-6.403-1-7.487-2.139v-2.389zm7.487-4.986c4.569 0 7.486 1.584 7.486 2.68v1.029c-1.07 1.138-3.848 2.138-7.486 2.138-3.64 0-6.403-1-7.487-2.139v-1.027c0-1.084 2.917-2.68 7.487-2.68zm0 12.68c-4.57 0-7.487-1.583-7.487-2.68v-1.36c1.584 1.124 4.32 1.846 7.487 1.846 3.166 0 5.902-.722 7.486-1.847v1.361c0 1.084-2.917 2.68-7.486 2.68zM32 29.597c-5.375 0-9.43 1.986-9.43 4.625v14.611c0 2.64 4.055 4.625 9.43 4.625s9.43-1.986 9.43-4.625v-14.61c0-2.64-4.055-4.626-9.43-4.626zm7.486 12.959c-1.07 1.139-3.847 2.138-7.486 2.138s-6.403-1-7.486-2.138v-2.39c1.583 1.126 4.32 1.848 7.486 1.848 3.167 0 5.903-.722 7.486-1.847v2.389zm0-3.653c-1.07 1.139-3.847 2.139-7.486 2.139s-6.403-1-7.486-2.14v-2.388c1.583 1.125 4.32 1.847 7.486 1.847 3.167 0 5.903-.722 7.486-1.847v2.389zm-14.972 4.93c1.583 1.125 4.32 1.848 7.486 1.848 3.167 0 5.903-.723 7.486-1.848v2.39C38.416 47.36 35.64 48.36 32 48.36s-6.403-1-7.486-2.139v-2.389zM32 31.542c4.57 0 7.486 1.583 7.486 2.68v1.028c-1.07 1.139-3.847 2.139-7.486 2.139s-6.403-1-7.486-2.139v-1.028c0-1.083 2.917-2.68 7.486-2.68zm0 19.986c-4.57 0-7.486-1.584-7.486-2.68v-1.362c1.583 1.125 4.32 1.847 7.486 1.847 3.167 0 5.903-.722 7.486-1.847v1.361c0 1.084-2.916 2.68-7.486 2.68zm22.57-29.236c-5.376 0-9.431 1.986-9.431 4.625v21.916c0 2.64 4.055 4.625 9.43 4.625S64 51.472 64 48.833V26.917c0-2.64-4.056-4.625-9.43-4.625zm7.486 20.264c-1.07 1.139-3.848 2.139-7.486 2.139-3.64 0-6.403-1-7.487-2.14v-2.388c1.584 1.125 4.32 1.847 7.486 1.847 3.167 0 5.903-.722 7.487-1.847v2.389zm0-3.653c-1.07 1.139-3.848 2.139-7.486 2.139-3.64 0-6.403-1-7.487-2.14v-2.388c1.584 1.125 4.32 1.847 7.486 1.847 3.167 0 5.903-.722 7.487-1.847v2.389zm0-3.653c-1.07 1.139-3.848 2.139-7.486 2.139-3.64 0-6.403-1-7.487-2.139v-2.389c1.584 1.125 4.32 1.847 7.486 1.847 3.167 0 5.903-.722 7.487-1.847v2.389zm0-3.653c-1.07 1.14-3.848 2.14-7.486 2.14-3.64 0-6.403-1-7.487-2.14v-2.389c1.584 1.125 4.32 1.848 7.486 1.848 3.167 0 5.903-.723 7.487-1.848v2.39zM47.083 43.833c1.584 1.125 4.32 1.848 7.486 1.848 3.167 0 5.903-.723 7.487-1.848v2.39c-1.07 1.138-3.848 2.138-7.486 2.138-3.64 0-6.403-1-7.487-2.139v-2.389zm7.486-19.597c4.57 0 7.487 1.584 7.487 2.68v1.029c-1.07 1.138-3.848 2.138-7.486 2.138-3.64 0-6.403-1-7.487-2.138v-1.028c0-1.084 2.917-2.68 7.486-2.68zm0 27.292c-4.569 0-7.486-1.584-7.486-2.68v-1.362c1.584 1.125 4.32 1.847 7.486 1.847 3.167 0 5.903-.722 7.487-1.847v1.361c0 1.084-2.917 2.68-7.486 2.68zM9.43 30.5a3.592 3.592 0 003.584-3.583c0-.098 0-.195-.014-.278l16.097-5.945A3.596 3.596 0 0032 22.167a3.592 3.592 0 003.417-4.68l16.82-11.181a3.55 3.55 0 002.332.86 3.592 3.592 0 003.584-3.583A3.592 3.592 0 0054.569 0a3.592 3.592 0 00-3.416 4.68l-16.82 11.181A3.55 3.55 0 0032 15a3.592 3.592 0 00-3.583 3.583c0 .098 0 .195.013.278l-16.097 5.945a3.596 3.596 0 00-2.902-1.473 3.592 3.592 0 00-3.584 3.584A3.592 3.592 0 009.43 30.5zM54.57 1.944c.902 0 1.638.737 1.638 1.64 0 .902-.736 1.638-1.639 1.638a1.642 1.642 0 01-1.639-1.639c0-.902.737-1.639 1.64-1.639zM32 16.958c.903 0 1.639.736 1.639 1.64 0 .902-.736 1.638-1.64 1.638a1.649 1.649 0 01-1.527-1.055v-.028a1.51 1.51 0 01-.097-.556A1.621 1.621 0 0132 16.958zm-22.57 8.32c.903 0 1.64.736 1.64 1.639 0 .902-.737 1.639-1.64 1.639a1.642 1.642 0 01-1.638-1.64c0-.902.736-1.638 1.639-1.638z" fill="#195C87"/></svg>