<svg width="64" height="62" fill="none" xmlns="http://www.w3.org/2000/svg"><path d="M64 38.802l-8.497-18.874-9.21 4.135.617 1.378c-1.962.633-4.119.779-6.308.422a13.539 13.539 0 00-4.28 0 13.264 13.264 0 00-3.292.989c-.487.21-.957.47-1.427.762l-4.103 2.01a15.128 15.128 0 00-1.897-.226c-2.237-.098-4.345-.681-6.161-1.703l.875-1.2-8.22-5.918L0 37.375l8.188 5.903.876-1.2c1.557 1.394 2.773 3.21 3.567 5.302.065.178.13.34.211.519l-1.038 1.427a3.236 3.236 0 00.73 4.507c.454.325.99.535 1.524.584 0 .162.017.324.033.486.146.844.6 1.59 1.297 2.108a3.184 3.184 0 001.88.617c.098 0 .18 0 .276-.017a3.251 3.251 0 003.13 2.465c.34 0 .681-.049 1.005-.162.227.503.584.94 1.038 1.265a3.184 3.184 0 001.88.616c.18 0 .358-.016.52-.049.86-.146 1.605-.6 2.108-1.297l.648-.908 3.097 1.784c.552.324 1.168.47 1.752.47.956 0 1.88-.39 2.53-1.135.356-.422.615-.908.745-1.443.632.21 1.297.26 1.978.146a4.108 4.108 0 002.708-1.687 4.19 4.19 0 00.762-2.01 3.761 3.761 0 00-.016-.957c1.135-.065 2.221-.568 2.967-1.476a4.12 4.12 0 00.957-2.659c.227.016.47 0 .713-.048a3.329 3.329 0 002.19-1.363c.437-.616.713-1.33.794-2.091 0-.033 0-.081.016-.114.227-.292.438-.6.633-.908 1.183-1.88 2.724-3.389 4.491-4.443l.6 1.314L64 38.802zm-3-1.151l-5.059 2.27-6.632-14.74 5.06-2.27L61 37.652zM12.615 23.755l4.508 3.243-9.08 12.582-.373.52-4.508-3.244 9.453-13.101zm1.038 26.9l1.41-1.962.082-.113a.971.971 0 01.616-.39c.049 0 .097-.016.13-.016h.032c.049 0 .081 0 .13.017h.032c.033 0 .065.016.114.032h.032c.032.016.081.032.114.049.016 0 .016.016.032.016.032.016.081.049.114.065.097.08.194.162.259.275.081.146.13.309.146.47v.13a.304.304 0 01-.033.13.814.814 0 01-.08.21c-.017.033-.05.066-.066.114l-1.491 2.076a.972.972 0 01-.616.389.928.928 0 01-.714-.162.935.935 0 01-.243-1.33zm3.08 4.524a.972.972 0 01-.388-.616.927.927 0 01.162-.713l3.34-4.638a.971.971 0 01.616-.389c.049 0 .097-.016.146-.016h.032c.05 0 .082 0 .13.016h.016a.3.3 0 01.114.032h.016c.049.017.081.033.114.049.016 0 .016.016.032.016.033.017.081.049.114.065a.962.962 0 01.389.876c0 .048-.017.08-.017.13 0 .016-.016.032-.016.048s-.016.049-.016.065-.016.032-.016.049c-.016.016-.016.048-.033.064-.016.017-.032.033-.032.065-.016.017-.016.033-.032.049l-3.34 4.637a.971.971 0 01-.617.39.99.99 0 01-.713-.179zm3.39 2.449a.956.956 0 01-.211-1.33l3.34-4.637c.033-.05.065-.081.114-.13l.032-.033a.906.906 0 01.13-.097c.016 0 .016-.016.032-.016.049-.016.081-.049.13-.065.016 0 .016 0 .016-.016.049-.016.097-.033.162-.049.017 0 .033 0 .049-.016h.13a.45.45 0 01.146.016.3.3 0 01.13.033h.015c.05.016.082.032.13.048 0 0 .016 0 .016.017.033.016.081.048.114.064.178.13.292.308.357.503a.957.957 0 01.032.373 1.049 1.049 0 01-.178.47l-3.34 4.638a.965.965 0 01-1.346.227zm4.637 1.864a.927.927 0 01-.713-.162.972.972 0 01-.39-.616.927.927 0 01.163-.713l1.491-2.076c.033-.032.049-.065.081-.097l.05-.049c.032-.032.064-.049.096-.081.017-.016.033-.032.049-.032.032-.017.081-.033.114-.049.016-.016.032-.016.048-.032.065-.017.114-.033.178-.05.05 0 .098-.015.13-.015h.033c.048 0 .08 0 .13.016h.032c.032 0 .065.016.113.032h.017c.032.017.08.033.113.049.016 0 .016.016.032.016.033.016.082.049.114.065a.962.962 0 01.39.876 1.049 1.049 0 01-.18.47l-1.459 2.075c-.162.195-.372.34-.632.373zm22.036-12.631a1.998 1.998 0 01-.373.99 1.08 1.08 0 01-.713.437 1.027 1.027 0 01-.811-.195l-1.265-.908-2.48-1.783c-.503-.373-1.217-.244-1.59.26-.373.502-.243 1.215.26 1.588l2.48 1.784c.438.308.698.778.779 1.297a1.925 1.925 0 01-.422 1.46c-.616.761-1.816.875-2.659.275l-.243-.178-.016-.017-3.065-2.205c-.503-.373-1.216-.243-1.59.26-.372.502-.242 1.216.26 1.589l3.065 2.205a1.92 1.92 0 01.762 1.735c-.032.34-.146.648-.34.908-.292.405-.73.68-1.233.762a1.826 1.826 0 01-1.41-.34l-1.492-1.07s-.016 0-.016-.017l-2.903-2.092c-.503-.373-1.216-.243-1.589.26-.373.502-.243 1.216.26 1.589l2.902 2.092c.243.178.405.454.438.762.032.308-.065.616-.26.859-.34.39-.956.47-1.443.178l-2.967-1.718a.3.3 0 00.032-.114c.017-.032.017-.065.033-.081.016-.032.016-.081.032-.114 0-.032.016-.048.016-.08.017-.05.017-.098.033-.13 0-.033.016-.049.016-.081.016-.065.016-.146.032-.211a3.242 3.242 0 00-1.33-2.951 1.927 1.927 0 00-.242-.162c-.033-.017-.049-.033-.081-.049-.065-.032-.114-.065-.179-.097a29.41 29.41 0 01-.097-.049c-.049-.016-.114-.049-.178-.065a.234.234 0 00-.114-.032c-.016 0-.049-.017-.065-.017v-.016c.016-.032.033-.08.049-.13.016-.032.016-.048.032-.08.016-.05.033-.081.033-.13 0-.033.016-.049.016-.081.016-.049.016-.097.032-.146 0-.016.017-.049.017-.065.016-.065.016-.146.032-.21a3.202 3.202 0 00-1.151-2.806 1.13 1.13 0 00-.163-.13c-.08-.065-.178-.113-.259-.162-.032-.016-.049-.032-.081-.048l-.195-.098a.27.27 0 00-.08-.032c-.066-.033-.13-.049-.211-.081-.033-.017-.05-.017-.081-.033-.082-.016-.146-.048-.227-.065-.017 0-.05-.016-.065-.016l-.244-.049h-.048c-.081-.016-.179-.016-.26-.016h-.373c0-.016-.016-.032-.016-.048l-.049-.195c0-.032-.016-.049-.032-.081a.99.99 0 00-.081-.195c0-.016-.016-.032-.016-.032a1.475 1.475 0 00-.114-.227c-.016-.016-.016-.032-.032-.065-.033-.049-.065-.113-.097-.162-.017-.016-.033-.049-.05-.065-.048-.065-.08-.13-.129-.178l-.016-.016c-.049-.065-.113-.13-.162-.195l-.049-.049a1.05 1.05 0 00-.146-.13.223.223 0 00-.065-.048c-.064-.049-.13-.113-.21-.162a3.174 3.174 0 00-2.4-.568 1.367 1.367 0 00-.276.065c-.016 0-.049.016-.065.016a1.422 1.422 0 00-.243.082c-.016 0-.016 0-.032.016-.081.032-.179.064-.26.113-.016.016-.048.016-.065.033-.064.032-.146.08-.21.113-.017 0-.033.016-.033.016-.08.049-.162.098-.227.163l-.049.048c-.032.016-.048.049-.08.065-.05-.065-.098-.13-.146-.195l-.05-.048a.922.922 0 00-.113-.13l-.064-.065a.812.812 0 00-.13-.113.211.211 0 00-.065-.049l-.195-.146a3.173 3.173 0 00-2.4-.567 1.374 1.374 0 00-.275.064c-.016 0-.049.017-.065.017-.097.032-.178.048-.276.08h-.016c-.065.017-.113.05-.178.066-.957-2.352-2.4-4.395-4.216-5.968l7.702-10.685a14.972 14.972 0 005.043 1.865l-.973 9.583a2.62 2.62 0 002.335 2.87 5.014 5.014 0 003.68-1.103 5.06 5.06 0 001.833-3.389l.26-2.513a7.98 7.98 0 003.729-1.103l12.015 9.275c.081.065.13.114.162.146l.016.016.065.065.033.033c.016.016.016.032.032.032l.032.032.05.05.096.145a.66.66 0 01.098.178l.016.033c.016.032.016.048.032.08a.228.228 0 01.033.098c.016.033.016.065.032.097l.033.098c.016.08.032.162.048.227v.032c0 .033 0 .065.017.097v.097c-.017.066-.017.163-.033.244zm1.476-2.74l-.017-.033-.032-.032a.701.701 0 00-.097-.114l-.017-.016a.223.223 0 01-.048-.065l-.033-.032c-.016-.033-.048-.049-.064-.081l-.017-.017-.08-.08c-.033-.033-.05-.065-.082-.082a4.515 4.515 0 00-.389-.34L34.035 32.916l-.697.52a5.703 5.703 0 01-4.005 1.118l-1.135-.114-.47 4.687a2.817 2.817 0 01-1.006 1.864 2.7 2.7 0 01-2.027.6.343.343 0 01-.308-.373l.81-7.961 5.806-2.854 1.605-.795.097-.048c.422-.26.827-.47 1.233-.649a10.872 10.872 0 016.275-.827c2.627.438 5.237.227 7.605-.567l5.4 12.015a15.641 15.641 0 00-4.946 4.589z" fill="#195C87"/><path d="M57.19 38.397c.065 0 .113.016.178.016.39 0 .762-.13 1.054-.373.34-.292.568-.681.616-1.135a1.69 1.69 0 00-1.508-1.849 1.69 1.69 0 00-1.848 1.509c-.081.924.6 1.75 1.508 1.832zm-.373-1.719a.543.543 0 01.535-.486h.049a.563.563 0 01.373.194c.097.114.13.26.113.405a.563.563 0 01-.194.373.523.523 0 01-.406.114c-.276-.032-.486-.308-.47-.6zm-48.401-.065a1.69 1.69 0 00-1.508-1.848 1.69 1.69 0 00-1.849 1.508c-.049.454.081.891.373 1.232.292.34.681.567 1.135.616.065 0 .114.016.178.016.86-.016 1.59-.648 1.67-1.524zm-2.092.178a.523.523 0 01-.114-.405.543.543 0 01.535-.486h.05a.547.547 0 01-.114 1.086.564.564 0 01-.357-.194zm23.884-18.144c5.14 0 9.324-4.183 9.324-9.323 0-5.14-4.184-9.324-9.324-9.324s-9.323 4.183-9.323 9.324c0 5.14 4.183 9.323 9.323 9.323zm0-16.36a7.059 7.059 0 017.054 7.053 7.059 7.059 0 01-7.054 7.053 7.059 7.059 0 01-7.053-7.053 7.059 7.059 0 017.053-7.054z" fill="#195C87"/><path d="M28.473 11.853c.162.178.373.324.616.438.244.113.536.194.86.227v.421c0 .13.016.227.065.292.048.065.113.098.21.098.114 0 .179-.033.211-.114a.986.986 0 00.049-.357v-.324a2.303 2.303 0 001.038-.324c.292-.179.519-.406.665-.681.145-.276.227-.584.227-.908 0-.26-.05-.487-.147-.714a1.525 1.525 0 00-.405-.551 1.953 1.953 0 00-.551-.34 9.327 9.327 0 00-.843-.26V7.005c.356.113.583.356.665.697.08.292.259.454.535.454a.47.47 0 00.373-.162c.097-.114.162-.227.162-.373 0-.13-.033-.26-.098-.422a1.477 1.477 0 00-.291-.437 1.574 1.574 0 00-.568-.422 2.117 2.117 0 00-.778-.178v-.454c0-.227-.098-.34-.276-.34-.178 0-.26.113-.26.356v.454c-.583.048-1.02.227-1.345.535-.325.308-.438.68-.438 1.167 0 .373.081.681.243.908.162.244.357.422.616.552.26.13.568.243.94.356v1.962a1.085 1.085 0 01-.453-.227 1.057 1.057 0 01-.26-.34 2.732 2.732 0 01-.194-.535.404.404 0 00-.179-.243c-.08-.065-.194-.082-.324-.082a.48.48 0 00-.389.163c-.097.113-.162.227-.162.373 0 .178.032.373.113.567.081.162.211.34.373.519zm2.01-2.01c.293.097.52.21.666.34.146.13.227.324.227.567a.921.921 0 01-.227.6c-.162.179-.373.292-.665.34V9.843zm-1.102-1.557c-.13-.114-.178-.276-.178-.503 0-.227.065-.405.195-.519.13-.113.324-.21.55-.275V8.61c-.242-.113-.437-.21-.567-.324z" fill="#195C87"/></svg>