<svg width="64" height="36" fill="none" xmlns="http://www.w3.org/2000/svg"><path d="M48.098 17.965a3.059 3.059 0 01-3.055 3.055 3.059 3.059 0 01-3.055-3.055 3.059 3.059 0 013.055-3.055 3.059 3.059 0 013.055 3.055zm-38.162 0a3.059 3.059 0 003.055 3.055 3.06 3.06 0 003.055-3.055 3.06 3.06 0 00-3.055-3.055 3.059 3.059 0 00-3.055 3.055zM5.026 35.93h34.99v-4.296h-29.82c.053-.3.092-.613.092-.94a5.098 5.098 0 00-5.98-5.013V10.236a5.098 5.098 0 005.98-5.013c0-.327-.026-.627-.091-.94H47.55a4.788 4.788 0 00-.157 1.24 5.098 5.098 0 006.345 4.935v10.431h4.295V5.027A5.037 5.037 0 0053.007 0H5.027A5.037 5.037 0 000 5.027v25.876a5.037 5.037 0 005.027 5.027zm36.962-3.604a.64.64 0 00-.64.64v2.324c0 .353.287.64.64.64h15.406a.64.64 0 00.64-.64v-2.324a.64.64 0 00-.64-.64H41.988zm19.035-2.088v-2.325a.64.64 0 00-.64-.64H44.978a.64.64 0 00-.64.64v2.325c0 .352.287.64.64.64h15.405a.64.64 0 00.64-.64zm2.337-8.017H47.954a.64.64 0 00-.64.64v2.324c0 .352.288.64.64.64H63.36a.64.64 0 00.64-.64V22.86a.64.64 0 00-.64-.64zM29.023 6.946c6.084 0 11.02 4.935 11.02 11.019 0 6.084-4.936 11.02-11.02 11.02s-11.019-4.936-11.019-11.02 4.922-11.02 11.02-11.02zm.966 2.833h-1.253a.337.337 0 00-.34.34v1.5c-.953.144-1.736.484-2.323 1.058-.653.627-.98 1.423-.98 2.403 0 1.07.314 1.893.927 2.441.614.548 1.606 1.097 2.951 1.645.561.235.94.483 1.162.731.222.248.326.6.326 1.058 0 .391-.104.705-.313.953-.209.235-.522.365-.94.365-.496 0-.9-.156-1.201-.47-.248-.26-.405-.652-.444-1.175a.38.38 0 00-.405-.352l-2.063.039a.418.418 0 00-.404.418c.052 1.096.404 1.932 1.057 2.533.705.64 1.593 1.031 2.65 1.149v1.41c0 .195.157.339.34.339h1.253c.196 0 .34-.157.34-.34v-1.462c.848-.156 1.54-.496 2.076-1.005.626-.614.94-1.41.94-2.415 0-1.045-.314-1.854-.94-2.429-.627-.561-1.606-1.136-2.938-1.697-.574-.248-.966-.496-1.175-.744-.209-.248-.313-.575-.313-.966 0-.392.091-.705.287-.966.196-.248.496-.38.9-.38.406 0 .719.158.967.458.196.248.313.587.352 1.044.014.21.21.353.405.353l2.063-.026a.41.41 0 00.405-.418c-.052-.9-.34-1.658-.875-2.272-.548-.64-1.266-1.044-2.167-1.227v-1.554a.319.319 0 00-.327-.34z" fill="#195C87"/></svg>