<svg width="58" height="64" fill="none" xmlns="http://www.w3.org/2000/svg"><path d="M49.593.432c-4.144 0-7.516 3.372-7.516 7.517a7.48 7.48 0 001.816 4.884l-9.507 9.506a7.48 7.48 0 00-4.945-1.869 7.48 7.48 0 00-4.752 1.7L14.465 11.944a7.47 7.47 0 001.457-4.429C15.921 3.371 12.55 0 8.404 0 4.261 0 .89 3.371.89 7.516s3.371 7.517 7.516 7.517a7.472 7.472 0 004.195-1.283l10.394 10.394a7.461 7.461 0 00-1.068 3.842c0 3.702 2.692 6.778 6.219 7.396v13.706c-3.527.617-6.219 3.694-6.219 7.396 0 4.145 3.372 7.516 7.516 7.516s7.516-3.371 7.516-7.516c0-3.702-2.692-6.778-6.219-7.397V35.383c3.527-.617 6.219-3.695 6.219-7.396 0-1.312-.34-2.545-.932-3.62l9.877-9.877a7.462 7.462 0 003.69.975c4.144 0 7.516-3.37 7.516-7.515 0-4.146-3.372-7.517-7.517-7.517zM8.405 12.223a4.713 4.713 0 01-4.707-4.708 4.712 4.712 0 014.707-4.707 4.712 4.712 0 014.708 4.707 4.713 4.713 0 01-4.708 4.708zm25.743 44.26a4.712 4.712 0 01-4.707 4.707 4.712 4.712 0 01-4.707-4.708 4.712 4.712 0 014.707-4.707 4.713 4.713 0 014.707 4.707zm-4.706-23.79a4.712 4.712 0 01-4.707-4.707 4.712 4.712 0 014.707-4.708 4.713 4.713 0 014.708 4.708 4.714 4.714 0 01-4.708 4.706zm20.151-20.038a4.712 4.712 0 01-4.707-4.707 4.712 4.712 0 014.707-4.708 4.713 4.713 0 014.708 4.708 4.713 4.713 0 01-4.708 4.707z" fill="#195C87"/></svg>