<svg width="24" height="24" fill="none" xmlns="http://www.w3.org/2000/svg"><path d="M17.63 15.355c-.51-.291-1.04-.383-1.49-.259a1.33 1.33 0 00-.797.619c-.409.488-.915 1.058-1.037 1.147-.949.641-1.701.565-2.518-.252l-4.595-4.595c-.818-.818-.893-1.57-.252-2.517.09-.124.66-.63 1.147-1.038a1.33 1.33 0 00.619-.798c.124-.45.032-.978-.261-1.492-.07-.12-1.716-2.91-3.236-3.711a1.963 1.963 0 00-2.318.348L1.878 3.822c-2.96 2.961-2.412 6.639 1.585 10.636l5.882 5.883c1.816 1.816 3.575 2.93 5.228 3.312a5.73 5.73 0 001.29.152c1.486 0 2.867-.629 4.118-1.88l1.015-1.015a1.963 1.963 0 00.349-2.318c-.804-1.518-3.593-3.166-3.716-3.237zm2.8 4.99l-1.015 1.014c-2.627 2.627-5.825 2.095-9.504-1.584l-5.882-5.883C.349 10.213-.184 7.016 2.444 4.387l1.015-1.014a1.17 1.17 0 011.378-.208c1.318.698 2.903 3.382 2.916 3.405.18.315.248.643.183.878a.537.537 0 01-.274.335l-.06.041c-.341.285-1.153.974-1.323 1.225a3.308 3.308 0 00-.493 1.066 5.665 5.665 0 01-.59-1.953.401.401 0 00-.796.083c.289 2.782 2.452 4.592 2.544 4.668.01.008.022.01.032.018l4.245 4.245c.018.018.037.034.055.05.014.022.023.044.041.063.076.075 1.882 1.827 4.64 2.113a.4.4 0 00.082-.796 7.046 7.046 0 01-2.22-.623 3.42 3.42 0 00.934-.459c.251-.17.94-.982 1.225-1.323l.041-.06a.541.541 0 01.335-.274c.234-.063.563.003.874.18.751.441 2.829 1.824 3.408 2.919.244.458.16 1.012-.206 1.378zM10.945.195a.4.4 0 100 .8C17.702.995 23.2 6.492 23.2 13.249a.4.4 0 10.8 0C24 6.051 18.144.195 10.945.195z" fill="#44B1F8"/><path d="M10.945 3.807c5.207 0 9.442 4.236 9.442 9.442a.4.4 0 10.8 0c0-5.647-4.594-10.242-10.242-10.242a.4.4 0 100 .8z" fill="#44B1F8"/><path d="M10.945 6.62a6.638 6.638 0 016.63 6.63.4.4 0 10.8 0c0-4.098-3.333-7.43-7.43-7.43a.4.4 0 100 .8z" fill="#44B1F8"/></svg>