<svg width="96" height="96" fill="none" xmlns="http://www.w3.org/2000/svg"><path d="M0 0v12.387h3.097V77.42h43.355v9.576c-1.798.64-3.097 2.344-3.097 4.36A4.65 4.65 0 0048 96a4.65 4.65 0 004.645-4.645c0-2.016-1.299-3.72-3.097-4.36v-9.576h43.355V12.387H96V0H0zm48 92.903a1.549 1.549 0 11.001-3.098A1.549 1.549 0 0148 92.903zm41.806-18.58H6.194V12.387h83.612v61.936zM92.903 9.29H3.097V3.097h89.806V9.29z" fill="#44B1F8"/><path d="M48 71.226c15.368 0 27.871-12.503 27.871-27.871 0-15.368-12.503-27.871-27.871-27.871-15.368 0-27.871 12.503-27.871 27.87 0 15.369 12.503 27.872 27.871 27.872zm1.548-52.566c12.423.772 22.375 10.724 23.147 23.146H49.548V18.66zm-3.096 0v26.243h26.243C71.89 57.842 61.138 68.13 48 68.13c-13.66 0-24.774-11.114-24.774-24.774 0-13.138 10.287-23.89 23.226-24.695zm40.258-.08h-3.097v3.097h3.097v-3.096zm-6.194 0H77.42v3.097h3.097v-3.096zm-6.193 0h-3.097v3.097h3.097v-3.096z" fill="#44B1F8"/></svg>