<svg width="96" height="93" fill="none" xmlns="http://www.w3.org/2000/svg"><path d="M91.88 87.185a5.203 5.203 0 01-5.2 5.201H5.2A5.203 5.203 0 010 87.185V5.701C0 2.831 2.33.5 5.201.5c2.87 0 5.201 2.33 5.201 5.201v76.283H86.68a5.201 5.201 0 015.2 5.201zM96 34.306a4.983 4.983 0 01-4.985 4.986 4.95 4.95 0 01-3.99-2.026l-9.426-.193-5.586 11.666c.091.38.159.767.159 1.173a4.981 4.981 0 01-4.988 4.985c-1.802 0-3.376-.972-4.25-2.416l-7.421-1.708-2.972 7.989a4.99 4.99 0 01.335 1.77 4.98 4.98 0 01-4.983 4.986c-2.35 0-4.306-1.63-4.834-3.818l-5.44-3.386-7.552 12.24c.026.198.057.39.057.596a4.983 4.983 0 01-4.985 4.985 4.983 4.983 0 01-4.988-4.982 4.983 4.983 0 014.985-4.985c.49 0 .944.09 1.387.218l6.678-10.82-12.631-7.862a4.884 4.884 0 01-1.503.258 4.982 4.982 0 01-4.983-4.986 4.982 4.982 0 014.983-4.985 4.986 4.986 0 014.988 4.986c0 .247-.042.486-.07.723l11.954 7.44 2.613-4.237a4.882 4.882 0 01-.408-1.974 4.98 4.98 0 014.983-4.985 4.973 4.973 0 014.813 3.74l4.294.99 2.753-7.38c-.629-.834-1.024-1.861-1.024-2.987a4.984 4.984 0 019.151-2.736l11.255.229 4.301-8.993a4.982 4.982 0 014.114-7.794A4.983 4.983 0 0187.772 20c0 2.532-1.896 4.602-4.348 4.92l-3.352 6.995 6.532.133a4.947 4.947 0 014.416-2.73 4.996 4.996 0 014.98 4.99zM50.4 49.59l-4.012-.924a4.928 4.928 0 01-3.267 1.246c-.101 0-.197-.023-.299-.036l-2.473 4.007 4.445 2.767a4.926 4.926 0 013.097-1.108c.096 0 .187.026.283.031L50.4 49.59zm21.49-12.636l-8.638-.177a4.972 4.972 0 01-3.43 2.426l-2.47 6.655 5.679 1.31a4.973 4.973 0 014.158-2.239c.291 0 .577.042.85.086l3.852-8.061z" fill="#44B1F8"/></svg>