<svg width="83" height="96" fill="none" xmlns="http://www.w3.org/2000/svg"><path d="M73.479 33.917H69.25V14.72C69.25 6.6 62.65 0 54.53 0H27.995c-8.121 0-14.721 6.6-14.721 14.721v19.196H9.046C4.348 33.917.5 37.742.5 42.463v44.99C.5 92.153 4.326 96 9.046 96H73.48c4.698 0 8.546-3.826 8.546-8.546V42.463c0-4.72-3.848-8.546-8.546-8.546zM16.407 14.72c0-6.398 5.213-11.589 11.589-11.589h26.533c6.399 0 11.59 5.213 11.59 11.589v19.196h-5.84V14.72c0-3.177-2.595-5.772-5.772-5.772H27.996c-3.177 0-5.772 2.595-5.772 5.772v19.196h-5.84V14.72h.023zm8.949 0a2.645 2.645 0 012.64-2.64h26.533a2.645 2.645 0 012.64 2.64v19.196H25.356V14.72zM9.046 37.049H73.48a5.418 5.418 0 015.414 5.414v33.916H3.633V42.463c0-2.976 2.438-5.414 5.413-5.414zM73.48 92.846H9.046a5.418 5.418 0 01-5.414-5.415v-9.486h75.239v9.486c.022 2.998-2.417 5.415-5.392 5.415z" fill="#44B1F8"/><path d="M35.759 69.287h11.007L45.58 55.841a6.208 6.208 0 001.902-4.474c0-3.423-2.797-6.22-6.22-6.22-3.422 0-6.219 2.797-6.219 6.22 0 1.7.694 3.311 1.902 4.475l-1.186 13.445zm.85-17.92a4.65 4.65 0 014.654-4.653 4.65 4.65 0 014.653 4.653 4.604 4.604 0 01-1.656 3.557l-.313.269 1.119 12.55h-7.607l1.119-12.55-.313-.269a4.638 4.638 0 01-1.656-3.557z" fill="#44B1F8"/></svg>