<svg width="96" height="96" fill="none" xmlns="http://www.w3.org/2000/svg"><path d="M95.186 71.938c.433-.554.205-1.579-.697-1.543l-.048.002a.681.681 0 00.018-.296c-2.124-11.893-9.244-24.21-14.956-34.695-.335-.615-1.287-.608-1.624 0-.975 1.757-1.78 3.23-2.528 5.106-1.034 2.597-1.544 7.22-2.948 1.766-1.494-5.807-2.576-11.561-4.755-17.176-.34-.878-1.447-.88-1.787 0a65.522 65.522 0 01-3.54 7.985c-2.704-.845-5.365-.575-8.206-.257-.52.059-.934.386-.944.945-.103 5.472.08 10.94.076 16.412a65.826 65.826 0 01-.764 9.63c.271-1.984-.98-9.294-1.14-10.665-1.395-11.868-1.447-23.819-3.34-35.64-.168-1.044-1.508-.74-1.82 0-2.548 6.044-4.68 12.212-6.73 18.44-.039.117-2.3 7.54-2.864 6.6-1.625-2.714-2.979-5.11-4.996-7.534-.42-.504-1.428-.255-1.535.406-.762 4.716-1.823 9.32-3.075 13.912-2.01-3.612-3.985-7.283-6.613-10.467-.355-.43-1.243-.34-1.468.19-3.059 7.181-2.692 15.223-3.566 22.893-1.228-1.172-2.5-2.277-3.944-3.197-.444-.284-.971-.067-1.247.328-2.662 3.807-4.173 8.258-6.158 12.445.086-5.772.552-11.55.81-17.362.582-13.075-1.363-25.964 1.07-38.961.014-.075-.001-.139-.002-.208.724-.004 1.447-.053 2.154-.201.54-.114.713-.665.647-1.14-.41-2.928-1.411-5.673-2.452-8.427C5.956.547 4.899.21 4.51 1.006 4 2.054.034 9.724 2.231 10.239a.307.307 0 00.074.216c.197.24.497.351.819.407a.94.94 0 00.824.585c-2.083 11.811-1.101 23.737-.978 35.67.075 7.358-1.063 14.87-1.033 22.275-.395.043-.79.07-1.186.115-.974.112-1.029 1.593 0 1.563.405-.013.809-.007 1.213-.018.11 3.71.557 7.388 1.652 11 .255.84 1.439.482 1.293-.357-.533-3.06-.781-6.117-.883-9.172 2.532 3.216 5.076 6.44 7.73 9.56-.135.228.086.456.324.382 1.352 1.578 2.724 3.137 4.158 4.636.453.474 1.126.28 1.473-.19 3.577-4.842 3.753-6.54 5.697-.75.965 2.874 2.01 5.693 3.213 8.475.366.844 1.457.422 1.72-.224 2.377-5.852 3.589-12.023 5.298-18.075 1.422 2.91 2.58 5.923 3.778 8.944.39.98 1.846.714 1.857-.153 1.48-.786 2.606-3.57 3.473-4.818.563-.81 8.926 13.098 9.856 14.675.279.472 1.095.68 1.474.19 2.247-2.9 4.952-5.42 7.43-8.118 1.212-1.321 2.892-3.008 3.587-4.85 1.307 1.396 2.254 3.119 3.352 4.678.311.442.984.634 1.394.18 2.826-3.14 4.632-6.927 6.954-10.409 2.82 5.923 3.895 12.557 7.776 17.968.396.552 1.203.629 1.584 0 1.817-2.991 3.021-6.398 4.365-9.62 1.244-2.98 2.581-9.56 5.238-11.693.556-.447.068-1.402-.572-1.373zm-89.842-.59c-.725-.127-1.152-.235-1.307-.326 1.15-.024 2.3-.01 3.451-.024l-.016.017c-.436.446-.8.956-1.193 1.441-.315-.367-.614-.746-.935-1.108zm1.497 1.775c.368-.391.717-.8 1.107-1.17.356-.336.744-.645 1.12-.966.61-.005 1.221.01 1.831.007-1.106 1.002-2.152 2.093-3.212 3.132-.284-.333-.564-.668-.846-1.003zm1.508 1.79c-.044-.056-.092-.107-.136-.162 1.53-1.183 3.08-2.42 4.477-3.75.503 0 1.007.013 1.51.015-.57.478-1.1.987-1.562 1.407-1.224 1.111-2.305 2.377-3.327 3.685-.318-.4-.642-.798-.962-1.195zm3.009 3.737c-.53-.662-1.068-1.317-1.595-1.98a40.827 40.827 0 013.188-3.18c1.113-.986 2.416-1.653 3.62-2.45.757.005 1.514.027 2.272.035-1.363.895-2.587 2.126-3.72 3.228-1.382 1.344-2.62 2.804-3.765 4.347zm1.485 1.845c-.349-.415-.678-.845-1.019-1.267a36.641 36.641 0 013.972-4.253c1.454-1.327 3.205-2.282 4.657-3.593.095-.086.117-.183.138-.278 1.128.016 2.256.05 3.384.072-2.13.337-3.97 2.128-5.469 3.545-1.965 1.859-3.69 3.952-5.5 5.961-.056-.066-.105-.12-.163-.187zm.646.744c1.46-1.334 2.848-2.75 4.245-4.147 1.826-1.825 3.707-3.133 5.861-4.359-1.186 1.052-2.258 2.169-2.982 2.833-1.591 1.459-5.043 4.324-5.854 6.99-.38-.35-.798-.784-1.27-1.317zm8.014-2.137c-1.084 1.306-1.884 2.399-2.571 3.192-.07.078-.149.153-.217.232-1.067 1.164-1.895 1.535-3.17.662 1.568-2.57 3.774-4.673 6.016-6.674 2.114-1.887 4.882-3.291 6.91-5.226 1.359.035 2.717.079 4.075.118-2.53.874-5.352 3.737-7.043 5.119-.923.754-1.953 1.563-2.984 2.418-.334-.171-.732-.183-1.016.159zm5.899 12.486c-.444-1.123-.84-2.262-1.249-3.397.664-.572 1.329-1.143 1.966-1.742.42-.393.864-.824 1.24-1.294-.588 2.163-1.208 4.316-1.957 6.433zm2.375-8.011c-.182-.098-.42-.1-.575.065-.707.756-1.23 1.68-1.935 2.454-.442.484-.906.948-1.364 1.418-.188-.527-.394-1.048-.579-1.575 1.901-1.382 3.68-3.14 5.152-4.998-.227.88-.468 1.756-.699 2.636zm1.24-4.687c-.165-.032-.335-.017-.474.124-1.948 1.995-3.466 4.327-5.437 6.301-.252-.722-.507-1.443-.76-2.167.998-1.496 2.393-2.707 3.76-3.855.81-.68 1.659-1.31 2.52-1.924.327-.234.672-.456.982-.711-.204.742-.396 1.488-.591 2.232zm1.475-5.343c-.198.642-.366 1.292-.55 1.938a.378.378 0 00-.296-.092c-1.502.193-3.228 2.163-4.313 3.126-1.21 1.077-2.496 2.35-3.265 3.834-.251-.717-.496-1.436-.755-2.152a51.17 51.17 0 011.866-1.608 87.592 87.592 0 015.695-4.282c.535-.368 1.159-.671 1.77-.989-.051.077-.123.133-.152.225zm1.724-.225c-.18-.326-.493-.44-.805-.433.399-.237.78-.49 1.093-.798.19-.187.2-.43.104-.626 1.146.036 2.292.075 3.438.112-.392.288-.763.613-1.129.909-.75.606-1.44 1.284-2.12 1.969-.196-.377-.375-.76-.581-1.133zm.893 1.745c.659-.582 1.32-1.162 2.032-1.68.82-.596 1.818-1.03 2.545-1.73.007-.008.005-.018.012-.026l2.159.074c-2.217 1.665-5.406 5.017-6.081 4.832-.228-.487-.425-.987-.667-1.47zm2.035 4.599c-.361-.85-.719-1.702-1.102-2.541 1.042.096 2.62-1.198 3.152-1.588.995-.732 1.955-1.513 2.923-2.28.545-.433 1.381-.88 1.806-1.482l1.878.064c-2.997 2.445-6.056 4.96-8.657 7.827zm1.951 4.805c-.206-.538-.427-1.064-.64-1.598a50.95 50.95 0 002.139-1.258c-.468.982-.937 1.958-1.499 2.856zm4.708-6.68c-.37-.4-.993-.255-1.268.162-.375.57-.706 1.173-1.021 1.788a83.21 83.21 0 01-3.37 2.353c-.213-.531-.419-1.07-.639-1.598 3.355-2.782 6.654-5.612 10.089-8.305a.6.6 0 00.203-.284c1.027.034 2.054.063 3.08.097a147.856 147.856 0 01-6.981 5.894c-.033-.034-.061-.072-.093-.107zm.92 1.068c2.883-2.101 5.626-4.402 8.249-6.789.785.027 1.571.044 2.357.07-1.87 1.518-3.843 2.91-5.743 4.39-1 .779-3.412 2.222-3.814 3.716-.352-.46-.675-.944-1.049-1.387zm1.63 2.152c.595-.325 1.032-.901 1.54-1.354 1.083-.963 2.262-1.821 3.425-2.683 1.94-1.44 3.916-2.86 5.747-4.44a.612.612 0 00.202-.339c.572.017 1.143.028 1.715.045-3.554 3.785-7.75 6.776-11.703 10.128-.31-.451-.604-.915-.926-1.357zm1.306 1.916c4.682-3.03 9.458-6.415 13.117-10.64 1.14.031 2.279.05 3.418.077-2.44 1.024-4.58 3.248-6.543 4.935-2.924 2.511-5.773 5.147-8.878 7.44-.376-.601-.723-1.222-1.114-1.812zm1.507 2.451c2.82-1.681 5.356-3.659 7.888-5.756 2.595-2.149 5.606-4.128 7.973-6.498.213-.213.158-.536-.017-.74.53.011 1.06.017 1.59.029-5.734 4.568-10.579 10.21-16.413 14.711-.346-.58-.669-1.17-1.021-1.746zm4.386 7.496c-.545-.95-1.11-1.902-1.67-2.853 3.858-.605 7.122-4.627 9.7-7.152.543-.533 1.13-1.037 1.703-1.551-2.58 4.393-6.485 7.647-9.733 11.556zm9.24-13.068c-1.94 1.624-3.62 3.585-5.424 5.354a30.97 30.97 0 01-3.23 2.746c-.676.503-2.032.879-2.34 1.421.093-.163-.12-.325-.255-.198l-.117.11c-.301-.511-.595-1.021-.896-1.531 6.779-3.758 12.506-9.92 18.113-15.182.025-.023.034-.051.054-.075.657.011 1.315.016 1.972.028-2.876 2.06-5.237 5.116-7.878 7.327zm6.293 4.97c-.549-.747-1.035-1.554-1.595-2.25 1.969-.731 3.675-2.376 5.13-3.754.462-.436.975-.904 1.504-1.396-2.081 3.11-4.99 7.466-5.04 7.4zm3.884-8.165c-1.745 1.897-3.738 4.083-6.112 5.267-.429-.409-.894-.764-1.479-.953.013-.152.045-.303.04-.457-.01-.303-.214-.52-.458-.647 2.78-2.374 5.665-4.683 8.101-7.31 1.135.014 2.27.002 3.405.01-1.297 1.195-2.435 2.935-3.497 4.09zM4.456 69.157c2.476-3.97 4.065-8.413 6.686-12.302 1.453 1.07 2.765 2.279 4.045 3.56.852.851 2.175-.472 1.32-1.32-.09-.09-.183-.178-.274-.267 1.667-7.05 1.309-14.535 3.766-21.385 2.35 3.273 3.954 6.991 6.342 10.228l-.01.037c-.087.301.138.473.376.484.052.067.092.14.145.206.596.748 1.743-.209 1.29-.995-.176-.307-.346-.62-.52-.93a174.18 174.18 0 002.56-8.026c1.946-6.708 4.382.362 6.273 3.523.434.724 1.453.531 1.71-.223 1.762-5.177 3.44-10.38 5.187-15.561 2.817-8.362 3.801-6.157 4.464 1.475 1.045 12.041 1.413 24.005 3.984 35.855.196.902 1.628.906 1.822 0 1.193-5.575 1.514-10.961 1.517-16.663.003-6.214-2.175-15.012 7.155-11.831.803.273 1.258-.521 1.078-1.16.032-.035.066-.06.092-.104 3.432-5.812 3.25-6.724 5.12.358 1.257 4.763 2.149 9.583 3.581 14.303.221.728 1.35.995 1.722.225 1.573-3.249 2.824-6.596 4.291-9.898.53-1.196 4.885 7.703 5.41 8.791 3.612 7.479 6.258 15.293 9.514 22.896-29.46.995-59.27-3.977-88.646-1.276zm73.27 5.232a.801.801 0 00-.399-.363c.384-.495.712-.996.983-1.5.934.002 1.868-.011 2.802-.012-1.025.967-1.911 2.139-2.674 3.334-.231-.49-.455-.981-.712-1.46zm1.16 2.408c.53-.68 1.053-1.363 1.625-2.014.734-.832 1.584-1.514 2.38-2.277.943-.005 1.886-.02 2.83-.029-.645.605-1.247 1.265-1.813 1.804-1.463 1.395-2.908 2.856-4.253 4.381a49.032 49.032 0 00-.769-1.865zm1.033 2.568c1.46-1.268 2.847-2.626 4.279-3.92 1.07-.97 2.523-1.895 3.584-2.988 1.088-.016 2.176-.057 3.264-.084-1.706 1.129-3.26 2.785-4.704 4.044-1.844 1.607-4.065 3.256-5.606 5.217-.269-.758-.532-1.518-.817-2.27zm8.754 5.537c-.77.86-1.496 1.767-2.266 2.625-.768.855-1.573 1.677-2.356 2.52a38.205 38.205 0 01-.721-1.538c1.12-1.668 2.574-3.124 3.978-4.542.688-.695 1.868-1.546 2.727-2.475-.454 1.131-.905 2.27-1.362 3.41zm-3.378 7.44a25.905 25.905 0 01-.9-1.61 64.871 64.871 0 003.011-2.794c-.65 1.5-1.334 2.982-2.11 4.404zm5.6-12.964l-.024.06a.468.468 0 00-.455-.033c-.643.29-1.077.93-1.55 1.434-.875.93-1.764 1.847-2.631 2.785-1.172 1.269-2.35 2.625-3.22 4.139a66.757 66.757 0 01-.968-2.465c1.998-.903 3.613-2.704 5.117-4.21 1.135-1.135 2.245-2.295 3.4-3.41.329-.317.874-.917 1.454-1.385-.445 1.178-.804 2.332-1.123 3.085zm1.828-4.754c-1.41.16-2.972 2.149-3.706 2.912-2.112 2.198-4.379 5.65-7.176 7.218-.315-.874-.622-1.752-.93-2.63 1.864-1.034 3.493-2.704 5.122-4.033 2.255-1.84 5.17-3.495 7.075-5.675.024-.028.022-.066.039-.097.444-.015.89-.017 1.334-.035-.704.49-1.276 1.356-1.758 2.34z" fill="#44B1F8"/><path d="M39.019 84.692c.014 0 .014-.022 0-.022z" fill="#44B1F8"/></svg>