<svg width="96" height="96" fill="none" xmlns="http://www.w3.org/2000/svg"><g clip-path="url(#clip0_237_245)"><path d="M95.998 66.311l.002-.065v-.014c0-.035-.003-.07-.006-.106l-.004-.052c-.003-.03-.009-.06-.014-.09l-.011-.066-.019-.07a1.127 1.127 0 00-.023-.083l-.02-.054a1.414 1.414 0 00-.037-.094l-.005-.014-16.448-36.186v-4.743h.103a3.217 3.217 0 003.214-3.214v-.246a3.2 3.2 0 00-2.702-3.173l-27.155-4.382v-2.785a6.504 6.504 0 001.659-4.343A6.539 6.539 0 0048 0a6.539 6.539 0 00-6.531 6.531 6.5 6.5 0 001.659 4.343v2.634l-27.172 4.528a3.204 3.204 0 00-2.686 3.17v.254a3.217 3.217 0 003.214 3.214h.104v4.743L.14 65.603c-.003.004-.004.01-.006.014a.966.966 0 00-.037.094l-.02.054a1.127 1.127 0 00-.023.083.797.797 0 00-.018.07c-.005.021-.008.043-.012.065l-.014.091-.004.052a1.64 1.64 0 00-.005.105L0 66.246l.002.065.003.053c.097 6.396 8.027 11.39 18.138 11.39 10.11 0 18.04-4.994 18.138-11.39l.002-.053.002-.065v-.014c0-.035-.003-.07-.006-.106l-.004-.052c-.003-.03-.009-.06-.014-.09l-.011-.066-.018-.07c-.008-.028-.015-.056-.024-.083l-.02-.054a1.436 1.436 0 00-.036-.093l-.006-.015-16.448-36.186v-4.743h23.43v33.785a3.215 3.215 0 00-1.66 2.811v22.908l-9.85 3.079a4.852 4.852 0 00-3.42 4.65v2.538c0 .859.697 1.555 1.556 1.555h36.492c.86 0 1.556-.696 1.556-1.555v-2.537a4.852 4.852 0 00-3.42-4.651l-9.85-3.079V61.27a3.213 3.213 0 00-1.66-2.81V24.673h23.43v4.743L59.855 65.603l-.005.015c-.014.03-.026.062-.037.093l-.02.054a1.127 1.127 0 00-.023.083.9.9 0 00-.018.07l-.012.065-.014.091-.004.052c-.003.035-.005.07-.005.106l-.001.014.002.066.002.052c.097 6.396 8.028 11.39 18.139 11.39 10.11 0 18.04-4.994 18.138-11.39.001-.018 0-.035.002-.053zm-77.855-32.8l14.172 31.18H3.97l14.173-31.18zm0 41.133c-7.2 0-13.414-3.003-14.762-6.843h29.524c-1.349 3.84-7.562 6.843-14.762 6.843zM51.42 61.27v22.497h-6.84V61.27c0-.057.047-.104.104-.104h6.635c.057 0 .103.047.103.104zm-5.183-3.214V12.82a6.507 6.507 0 003.525 0v45.237h-3.525zM48 3.11a3.425 3.425 0 013.421 3.421 3.425 3.425 0 01-3.42 3.421 3.425 3.425 0 01-3.422-3.42A3.425 3.425 0 0148 3.11zM16.484 21.564a.104.104 0 01-.104-.104v-.254c0-.05.037-.093.087-.102l26.66-4.443v4.903H16.485zm48.207 70.344v.982H31.31v-.982c0-.775.497-1.451 1.237-1.683l10.715-3.348h9.478l10.716 3.349c.74.23 1.236.907 1.236 1.682zM52.873 16.809l26.66 4.302c.05.009.087.052.087.103v.246a.104.104 0 01-.104.104H52.873v-4.755zm24.985 16.703l14.172 31.18H63.685l14.173-31.18zm0 41.132c-7.201 0-13.414-3.003-14.762-6.843H92.62c-1.349 3.84-7.562 6.843-14.762 6.843z" fill="#44B1F8"/></g><defs><clipPath id="clip0_237_245"><path fill="#fff" d="M0 0h96v96H0z"/></clipPath></defs></svg>