<svg width="96" height="64" fill="none" xmlns="http://www.w3.org/2000/svg"><path d="M84.702 54.17V6.505A6.016 6.016 0 0078.696.5H17.325a6.016 6.016 0 00-6.007 6.006V54.17H0v3.76a6.016 6.016 0 006.006 6.006h83.988A6.016 6.016 0 0096 57.928V54.17H84.702zM14.178 6.505a3.148 3.148 0 013.146-3.146h61.372a3.148 3.148 0 013.146 3.146V54.17h-2.656V8.631a2.825 2.825 0 00-2.82-2.82H19.655a2.825 2.825 0 00-2.82 2.82V54.15h-2.656V6.506zM35.916 57.03h23.8v.45c0 .572-.47 1.042-1.041 1.042H36.958c-.572 0-1.042-.47-1.042-1.042v-.45zm41.86-2.86H18.245V8.631c0-.776.633-1.39 1.39-1.39h56.713c.776 0 1.389.634 1.389 1.39V54.17h.04zm15.384 3.739a3.148 3.148 0 01-3.146 3.146H6.027a3.148 3.148 0 01-3.146-3.146v-.899h31.625v.45a2.467 2.467 0 002.472 2.471h21.717a2.468 2.468 0 002.472-2.471v-.45H93.16v.899z" fill="#44B1F8"/><path d="M63.21 31.063a15.04 15.04 0 00-1.655-6.905c-.02-.061-.061-.123-.081-.184-2.575-4.924-7.723-8.295-13.648-8.295-5.924 0-11.073 3.371-13.647 8.295-.04.061-.061.123-.082.184a15.433 15.433 0 00-1.654 6.905c0 2.472.592 4.842 1.654 6.905.02.062.062.123.082.184 2.574 4.924 7.723 8.295 13.647 8.295 5.925 0 11.073-3.371 13.648-8.295a.727.727 0 00.081-.184 15.166 15.166 0 001.655-6.905zm-29.337.715h3.432c.061 1.818.327 3.596.797 5.25H35.18a14.611 14.611 0 01-1.307-5.25zm1.328-6.68h2.921a21.858 21.858 0 00-.797 5.25h-3.432c.082-1.88.552-3.636 1.308-5.25zm26.559 5.25h-3.433a22.015 22.015 0 00-.796-5.25h2.921a14.503 14.503 0 011.308 5.25zm-4.863 0h-3.412a36.894 36.894 0 00-.429-5.25h2.963c.51 1.614.817 3.37.878 5.25zm-8.356 14.424v-6.313h2.84a22.413 22.413 0 01-.735 2.758c-.613 1.798-1.37 3.044-2.105 3.555zm-3.554-3.576a22.432 22.432 0 01-.736-2.758h2.84v6.313c-.736-.49-1.492-1.736-2.104-3.555zm2.124-23.841v6.313h-2.84c.205-1.002.45-1.92.736-2.758.593-1.798 1.348-3.065 2.104-3.555zm3.535 3.555c.286.837.53 1.756.735 2.758h-2.84v-6.313c.736.49 1.492 1.757 2.105 3.555zm-3.535 4.188v5.25h-3.514c.02-1.839.184-3.616.43-5.25h3.084zm0 6.68v5.25h-3.105a42.03 42.03 0 01-.43-5.25h3.535zm1.43 5.23v-5.25h3.514a38.468 38.468 0 01-.429 5.25h-3.085zm0-6.66v-5.25h3.106c.245 1.634.388 3.411.429 5.25H48.54zm4.29-6.68c-.449-2.289-1.082-4.311-1.94-5.762 1.94 1.063 3.575 3.106 4.637 5.762h-2.696zm-8.07-5.762c-.857 1.43-1.511 3.453-1.94 5.762h-2.697c1.063-2.636 2.697-4.679 4.638-5.762zm-2.185 7.192a43.702 43.702 0 00-.43 5.25h-3.411c.061-1.859.368-3.636.858-5.25h2.983zm-3.841 6.68h3.412c.02 1.778.163 3.555.429 5.25h-2.962c-.511-1.613-.797-3.39-.879-5.25zm4.086 6.66c.45 2.288 1.083 4.311 1.94 5.762-1.94-1.063-3.574-3.106-4.637-5.762h2.697zm8.05 5.762c.857-1.43 1.511-3.453 1.94-5.762h2.697c-1.062 2.656-2.697 4.7-4.638 5.762zm2.185-7.192c.245-1.675.389-3.473.43-5.25h3.411a20.454 20.454 0 01-.858 5.25h-2.983zm5.271-5.23h3.433a13.833 13.833 0 01-1.328 5.25H57.51c.49-1.654.756-3.432.817-5.25zm1.328-8.11h-2.594a15.537 15.537 0 00-1.717-3.392 15.698 15.698 0 00-1.41-1.777 14.25 14.25 0 015.721 5.169zm-17.937-5.149c-.511.531-.98 1.103-1.41 1.778a17.587 17.587 0 00-1.716 3.391h-2.595a13.713 13.713 0 015.72-5.169zm-5.741 19.92h2.595a15.538 15.538 0 001.716 3.39c.45.654.919 1.247 1.41 1.778a14.104 14.104 0 01-5.721-5.169zm17.958 5.168c.51-.531.98-1.103 1.41-1.777a17.587 17.587 0 001.716-3.392h2.594a14.104 14.104 0 01-5.72 5.17z" fill="#44B1F8"/></svg>