<svg width="55" height="82" fill="none" xmlns="http://www.w3.org/2000/svg"><path d="M48.372.5H5.679A5.689 5.689 0 000 6.18v69.64c0 3.13 2.55 5.68 5.68 5.68h42.692c3.13 0 5.68-2.55 5.68-5.68V6.18c0-3.13-2.55-5.68-5.68-5.68zm2.975 75.34a2.976 2.976 0 01-2.975 2.975H5.679a2.976 2.976 0 01-2.974-2.975V6.18a2.976 2.976 0 012.974-2.975h42.693a2.976 2.976 0 012.975 2.974v69.66z" fill="#fff"/><path d="M45.822 7.339H8.23a2.671 2.671 0 00-2.665 2.665v57.22A2.671 2.671 0 008.23 69.89h37.593a2.671 2.671 0 002.666-2.666v-57.22a2.671 2.671 0 00-2.666-2.665zm1.314 59.885c0 .734-.6 1.314-1.314 1.314H8.23a1.315 1.315 0 01-1.313-1.314v-57.22c0-.734.599-1.313 1.313-1.313h37.593c.734 0 1.314.599 1.314 1.313v57.22zm-20.11 4.134a3.01 3.01 0 00-2.994 2.994 3.01 3.01 0 002.994 2.995 3.01 3.01 0 002.994-2.995 2.997 2.997 0 00-2.994-2.994zm0 4.636a1.64 1.64 0 01-1.642-1.642 1.64 1.64 0 011.642-1.642 1.64 1.64 0 011.642 1.642c0 .89-.734 1.642-1.642 1.642zm0-69.621c.637 0 1.159-.522 1.159-1.16 0-.637-.522-1.159-1.16-1.159-.637 0-1.158.522-1.158 1.16 0 .637.521 1.159 1.159 1.159z" fill="#fff"/><path d="M27.026 23.623c-8.268 0-14.99 6.723-14.99 14.991s6.722 14.99 14.99 14.99 14.99-6.722 14.99-14.99-6.722-14.99-14.99-14.99zm0 27.297c-6.78 0-12.286-5.506-12.286-12.286 0-6.781 5.505-12.306 12.286-12.306 6.78 0 12.286 5.506 12.286 12.286 0 6.78-5.506 12.306-12.286 12.306z" fill="#fff"/><path d="M29.827 38.633a2.888 2.888 0 00-.927-.58c-.348-.134-.812-.27-1.391-.443v-2.937c.599.194.966.58 1.12 1.179.135.502.444.753.889.753a.816.816 0 00.618-.251.816.816 0 00.251-.618c0-.213-.058-.444-.174-.696a2.835 2.835 0 00-.483-.734c-.27-.309-.58-.54-.946-.714-.367-.155-.792-.252-1.295-.31v-.753c0-.386-.154-.58-.444-.58-.29 0-.444.194-.444.6v.753c-.966.077-1.72.386-2.241.908-.522.521-.773 1.178-.773 1.99 0 .618.135 1.12.387 1.525.27.387.598.696 1.023.908.425.213.947.406 1.584.58v3.284c-.309-.096-.56-.212-.753-.386a1.66 1.66 0 01-.425-.56 6.975 6.975 0 01-.328-.89.842.842 0 00-.31-.424.99.99 0 00-.54-.155.888.888 0 00-.657.27.865.865 0 00-.27.619c0 .309.057.618.193.927.135.31.328.618.618.908.27.29.618.541 1.024.734.405.193.888.329 1.448.387v.695c0 .212.04.367.097.483.058.116.193.155.348.155.174 0 .309-.058.348-.194.058-.135.077-.328.077-.599v-.56c.676-.058 1.255-.232 1.738-.521.483-.29.85-.677 1.12-1.14.252-.464.387-.966.387-1.507 0-.425-.077-.83-.232-1.178a2.5 2.5 0 00-.637-.928zM26.6 37.378c-.425-.155-.734-.329-.947-.522-.212-.193-.309-.463-.309-.85 0-.386.116-.676.329-.87.212-.192.521-.347.927-.463v2.705zm1.99 4.597c-.252.29-.619.483-1.102.58v-3.09c.483.154.85.347 1.12.56.271.212.387.54.387.946-.02.386-.135.734-.405 1.005z" fill="#fff"/></svg>