<svg width="82" height="40" fill="none" xmlns="http://www.w3.org/2000/svg"><path d="M14.657 17.003a3.317 3.317 0 110 6.634 3.317 3.317 0 010-6.634zM5.978 39.889h39.47a4.017 4.017 0 01-.199-1.27v-3.4H11.605a5.535 5.535 0 00-5.445-6.567c-.33 0-.66.033-.974.083v-16.83c.314.049.644.082.974.082a5.535 5.535 0 005.445-6.567h40.673a5.242 5.242 0 00-.165 1.353 5.535 5.535 0 005.544 5.544c.479 0 .941-.066 1.37-.165v5.626a4.232 4.232 0 011.304-.214h3.382V6.228A5.486 5.486 0 0058.235.75H5.978A5.486 5.486 0 00.5 6.228v28.183c.016 3.02 2.459 5.478 5.478 5.478zm53.082-18.15v16.863c0 .71.578 1.27 1.27 1.27h5.644c.71 0 1.27-.577 1.27-1.27V21.739a1.27 1.27 0 00-1.27-1.271H60.33c-.71-.017-1.271.561-1.271 1.27zm-9.636 4.603c-.71 0-1.27.578-1.27 1.27v10.99c0 .71.577 1.27 1.27 1.27h5.643c.71 0 1.27-.577 1.27-1.27v-10.99a1.27 1.27 0 00-1.27-1.27h-5.643zm18.15-11.88h2.393v24.14c0 .71.577 1.27 1.27 1.27h5.644a1.27 1.27 0 001.27-1.27v-24.14h2.393c.759 0 1.22-.858.792-1.485L74.85 3.506a.956.956 0 00-1.568 0l-6.484 9.47c-.43.628.016 1.486.775 1.486zm-35.46-6.138c6.617 0 11.997 5.379 11.997 11.996 0 6.616-5.38 11.995-11.996 11.995-6.617 0-11.996-5.379-11.996-11.995 0-6.617 5.38-11.996 11.996-11.996zm-7.82 7.656h2.36a13.493 13.493 0 011.913-3.878 9.04 9.04 0 00-4.273 3.878zm1.93 6.88a15.36 15.36 0 01-.214-2.54c0-.908.082-1.75.214-2.542h-2.69a9.182 9.182 0 00-.362 2.542c0 .874.132 1.732.363 2.54h2.69zm2.343 5.677a13.492 13.492 0 01-1.914-3.878h-2.36a9.04 9.04 0 004.274 3.878zm2.64-3.878h-2.656a11.863 11.863 0 002.656 4.224V24.66zm0-6.88h-3.151a13.462 13.462 0 00-.231 2.54c0 .908.082 1.766.247 2.542h3.152v-5.083h-.017zm0-6.023a11.444 11.444 0 00-2.673 4.24h2.673v-4.24zm8.729 12.903h-2.36a13.495 13.495 0 01-1.914 3.878 9.115 9.115 0 004.274-3.878zm-1.947-6.88c.132.791.215 1.633.215 2.54 0 .908-.083 1.75-.215 2.542h2.69c.23-.809.363-1.65.363-2.541 0-.875-.133-1.733-.364-2.542H37.99zm-2.343-5.677a13.494 13.494 0 011.914 3.878h2.36a8.964 8.964 0 00-4.274-3.878zm-2.64 3.878h2.656a11.861 11.861 0 00-2.656-4.224v4.224zm0 6.88h3.151a13.46 13.46 0 00.231-2.54c0-.908-.082-1.766-.247-2.542h-3.152v5.083h.017zm0 6.023a11.443 11.443 0 002.673-4.24h-2.673v4.24z" fill="#fff"/></svg>