<svg width="72" height="82" fill="none" xmlns="http://www.w3.org/2000/svg"><path d="M43.211 43.85l.17-2.71a20.762 20.762 0 006.916 1.172c11.528 0 20.906-9.378 20.906-20.906C71.203 9.878 61.825.5 50.297.5 39.21.5 30.113 9.175 29.433 20.094h-6.496c-3.1 0-5.975 1.244-8.097 3.502a11.003 11.003 0 00-2.99 8.3l.747 11.953c.014 5.173 2.192 9.8 5.597 12.857v2.09l-2.306 3.46-10.796 2.945A6.926 6.926 0 000 71.868v5.52A4.116 4.116 0 004.111 81.5h47.586a4.116 4.116 0 004.11-4.111v-5.521a6.925 6.925 0 00-5.091-6.667L39.92 62.257l-2.307-3.46v-2.091c3.405-3.057 5.584-7.684 5.598-12.857zm-11.58 24.214l-1.783-1.784 6.172-5.143 1.504 2.256-4.166 6.25c-.007.01-.023.034-.064.038-.042.004-.062-.017-.071-.025l-1.592-1.592zm-7.454 0l-1.592 1.592a.082.082 0 01-.07.025.08.08 0 01-.065-.039l-4.166-6.249 1.504-2.256 6.172 5.143-1.783 1.783v.001zm3.727-3.58l-6.986-5.821a14.196 14.196 0 006.986 1.844c2.515 0 4.89-.666 6.986-1.844l-6.986 5.821zm0 10.018a4.1 4.1 0 00.326-.014l.9 4.388h-2.453l.9-4.388c.108.009.217.014.327.014zm1.487-4.111c0 .82-.667 1.487-1.487 1.487-.82 0-1.487-.667-1.487-1.487v-.856l1.487-1.487 1.487 1.487v.856zM50.297 3.124c10.08 0 18.282 8.201 18.282 18.282 0 10.08-8.201 18.282-18.282 18.282-2.341 0-4.605-.433-6.745-1.286l.406-6.506c.017-.274.021-.545.019-.816.677.348 1.42.638 2.209.866v.656a1.312 1.312 0 102.624 0v-.16a15.404 15.404 0 002.974.003v.157a1.312 1.312 0 102.624 0v-.652c3.334-.974 5.599-3.109 5.599-5.646s-2.265-4.672-5.599-5.645v-7.037c1.851.704 2.974 1.832 2.974 2.886a1.312 1.312 0 102.625 0c0-2.537-2.265-4.672-5.599-5.646v-.652a1.312 1.312 0 10-2.624 0v.156a15.852 15.852 0 00-2.974 0v-.156a1.312 1.312 0 10-2.624 0v.652c-3.334.973-5.599 3.109-5.599 5.646s2.265 4.672 5.599 5.645v7.04c-1.367-.506-2.374-1.226-2.93-1.951a11.1 11.1 0 00-2.289-3.645 11.001 11.001 0 00-8.096-3.503h-.808c.675-9.47 8.595-16.97 18.234-16.97zm-1.487 9.88a13.174 13.174 0 012.974 0v7.16c-.484-.046-.98-.07-1.487-.07-.516 0-1.013-.03-1.487-.083v-7.007zm-2.624 6.389c-1.851-.704-2.974-1.832-2.974-2.885 0-1.054 1.123-2.182 2.974-2.886v5.77zm4.111 3.325c.516 0 1.013.03 1.487.083v7.007a13.174 13.174 0 01-2.974-.003v-7.156c.484.045.98.07 1.487.07zm4.111.701c1.851.704 2.974 1.832 2.974 2.886 0 1.053-1.123 2.181-2.974 2.885v-5.77zm-37.655 1.974a8.404 8.404 0 016.184-2.675h9.934c2.367 0 4.563.95 6.184 2.675a8.404 8.404 0 012.284 6.34l-.247 3.948c-1.11-2.256-2.261-3.762-2.354-3.882a1.312 1.312 0 00-1.53-.412c-6.59 2.67-18.977 2.703-19.101 2.703-.294 0-.58.098-.81.28-.092.072-1.305 1.046-2.483 2.884l-.345-5.522a8.404 8.404 0 012.284-6.339zm-1.531 18.465c.394-3.91 2.579-6.36 3.391-7.148 2.36-.03 12.175-.29 18.599-2.523 1.079 1.627 3.375 5.565 3.375 9.612 0 7.766-5.69 14.083-12.683 14.083-6.976 0-12.653-6.285-12.682-14.024zM2.624 77.388v-5.52a4.296 4.296 0 013.159-4.136l10.357-2.824 4.127 6.19a2.703 2.703 0 002.259 1.207 2.69 2.69 0 001.527-.474 4.125 4.125 0 001.066 1.58L24 78.877H12.42V74.59a1.312 1.312 0 10-2.624 0v4.286H4.111c-.82 0-1.487-.667-1.487-1.487zm50.56-5.52v5.52a1.49 1.49 0 01-1.487 1.488H46.01V74.59a1.312 1.312 0 10-2.624 0v4.286H31.809l-1.12-5.464a4.13 4.13 0 001.065-1.58 2.695 2.695 0 001.798.46 2.702 2.702 0 001.989-1.194l4.127-6.19 10.357 2.825a4.295 4.295 0 013.159 4.135z" fill="#fff"/></svg>