<svg width="82" height="82" fill="none" xmlns="http://www.w3.org/2000/svg"><path d="M7.25 39.644a1.35 1.35 0 00-1.35 1.35v1.35c0 .745.605 1.35 1.35 1.35 1.49 0 2.7 1.21 2.7 2.7a1.35 1.35 0 002.7 0 5.412 5.412 0 00-4.05-5.23v-.17a1.35 1.35 0 00-1.35-1.35z" fill="#fff"/><path d="M7.25 67.993c9.677 0 17.55-7.873 17.55-17.55 0-9.676-7.873-17.55-17.55-17.55a1.35 1.35 0 000 2.7c8.188 0 14.85 6.663 14.85 14.85 0 8.188-6.662 14.85-14.85 14.85a1.35 1.35 0 000 2.7z" fill="#fff"/><path d="M74.75 19.394H21.552l42.677-8.129c.013-.004 1.549-.302 2.594.553.781.638 1.177 1.825 1.177 3.526a1.35 1.35 0 002.7 0c0-2.57-.74-4.467-2.198-5.642-2.063-1.66-4.729-1.102-4.805-1.084l-56.7 10.8a1.35 1.35 0 00.253 2.676h67.5a4.055 4.055 0 014.05 4.05v48.6a4.055 4.055 0 01-4.05 4.05H7.25a4.055 4.055 0 01-4.05-4.05v-54c0-2.456 2.283-4.196 4.437-4.782l40.618-12.19c.817-.33 3.479-1.048 4.948-.054.86.581 1.297 1.768 1.297 3.526a1.35 1.35 0 002.7 0c0-2.71-.837-4.65-2.487-5.763-2.904-1.962-7.009-.399-7.35-.256L6.895 13.365C3.712 14.232.5 16.85.5 20.745v54a6.758 6.758 0 006.75 6.75h67.5a6.758 6.758 0 006.75-6.75v-48.6a6.758 6.758 0 00-6.75-6.75z" fill="#fff"/><path d="M7.25 57.194a1.35 1.35 0 00-1.35 1.35v1.35a1.35 1.35 0 002.7 0v-.17a5.412 5.412 0 004.05-5.23c0-2.979-2.422-5.4-5.4-5.4a1.35 1.35 0 000 2.7c1.49 0 2.7 1.21 2.7 2.7 0 1.489-1.21 2.7-2.7 2.7zm29.7 0a1.35 1.35 0 001.35-1.35v-10.8c0-.546-.33-1.038-.833-1.248a1.346 1.346 0 00-1.471.293l-4.05 4.05a1.348 1.348 0 000 1.91 1.348 1.348 0 001.908 0l1.746-1.746v7.54c0 .746.605 1.35 1.35 1.35zm22.95-4.05v-5.4a4.055 4.055 0 00-4.05-4.05 4.055 4.055 0 00-4.05 4.05v5.4a4.055 4.055 0 004.05 4.05 4.055 4.055 0 004.05-4.05zm-5.4 0v-5.4c0-.744.606-1.35 1.35-1.35.744 0 1.35.606 1.35 1.35v5.4c0 .743-.606 1.35-1.35 1.35-.744 0-1.35-.607-1.35-1.35z" fill="#fff"/><path d="M7.25 76.094h59.4a1.35 1.35 0 001.35-1.35 6.758 6.758 0 016.75-6.75 1.35 1.35 0 001.35-1.35v-32.4a1.35 1.35 0 00-1.35-1.35 6.758 6.758 0 01-6.75-6.75 1.35 1.35 0 00-1.35-1.35H7.25a1.35 1.35 0 000 2.7h58.146a9.474 9.474 0 008.004 8.004v29.891a9.474 9.474 0 00-8.004 8.004H7.25a1.35 1.35 0 000 2.7z" fill="#fff"/><path d="M49.1 53.144v-5.4a4.055 4.055 0 00-4.05-4.05 4.055 4.055 0 00-4.05 4.05v5.4a4.055 4.055 0 004.05 4.05 4.055 4.055 0 004.05-4.05zm-5.4 0v-5.4c0-.744.606-1.35 1.35-1.35.744 0 1.35.606 1.35 1.35v5.4c0 .743-.606 1.35-1.35 1.35-.744 0-1.35-.607-1.35-1.35z" fill="#fff"/></svg>