<svg width="82" height="66" fill="none" xmlns="http://www.w3.org/2000/svg"><path d="M48.942 15.119L62.13 1.931 60.45.25 45.58 15.119h-9.16L21.551.25 19.87 1.931 33.058 15.12H.5v50.566h81V15.118H48.942zm30.18 48.188H2.878v-45.81h32.557l2.695 2.694h-2.202v2.378h10.144v-2.378h-4.58l-2.694-2.694h40.324v45.81z" fill="#fff"/><path d="M8.109 58.076h25.203V25.264H8.11v32.812zm2.377-30.435h20.448v28.057H10.486V27.641zm26.789 5.073h22.667v-7.45H37.275v7.45zm2.378-5.073h17.912v2.695H39.653v-2.695zm-2.378 15.218H73.89v-7.45H37.275v7.45zm2.378-5.073h31.86v2.695h-31.86v-2.695zm22.905 7.767H37.196v2.378h25.362v-2.377zm-5.073 5.073H42.268v2.377h15.217v-2.377zm-3.804 5.072H42.268v2.378h11.413v-2.378zm-13.949-5.072h-2.536v2.377h2.536v-2.377zm0 5.072h-2.536v2.378h2.536v-2.378z" fill="#fff"/><path d="M25.703 37.865v-1.268a4.999 4.999 0 00-4.993-4.993 4.999 4.999 0 00-4.993 4.993v1.268a5.001 5.001 0 003.305 4.7l-5.841 3.504v6.934H28.24V46.07l-5.842-3.505a5.001 5.001 0 003.305-4.699zm-7.608 0v-1.268a2.619 2.619 0 012.615-2.615 2.618 2.618 0 012.616 2.615v1.268a2.618 2.618 0 01-2.616 2.616 2.618 2.618 0 01-2.615-2.616zm7.767 12.76H15.559v-3.21l5.151-3.09 5.152 3.09v3.21z" fill="#fff"/></svg>